<?xml version="1.0" standalone="no"?>
<!DOCTYPE svg PUBLIC "-//W3C//DTD SVG 20010904//EN"
 "http://www.w3.org/TR/2001/REC-SVG-20010904/DTD/svg10.dtd">
<svg version="1.0" xmlns="http://www.w3.org/2000/svg"
 width="512.000000pt" height="512.000000pt" viewBox="0 0 512.000000 512.000000"
 preserveAspectRatio="xMidYMid meet">

<g transform="translate(0.000000,512.000000) scale(0.100000,-0.100000)"
fill="#000000" stroke="none">
<path d="M2939 5100 c-32 -17 -151 -202 -954 -1477 -740 -1175 -919 -1466
-923 -1499 -6 -57 26 -118 78 -144 38 -19 58 -20 655 -20 582 0 616 -1 611
-17 -32 -110 -446 -1780 -446 -1799 0 -44 37 -102 80 -124 49 -25 90 -25 139
0 35 17 123 154 943 1457 498 791 913 1452 922 1470 35 68 5 158 -64 193 -38
19 -58 20 -656 20 l-616 0 6 23 c51 189 446 1775 446 1793 0 44 -37 102 -80
124 -49 25 -94 25 -141 0z"/>
</g>
</svg>
